<svg xmlns="http://www.w3.org/2000/svg" xmlns:xlink="http://www.w3.org/1999/xlink" width="48" height="32" viewBox="0 0 48 32"><defs><clipPath id="a"><rect width="48" height="32" transform="translate(0.137 0)" fill="none"/></clipPath></defs><g transform="translate(-0.137)"><g transform="translate(0 0)" clip-path="url(#a)"><path d="M46.606,28.458A2.96,2.96,0,0,1,43.66,31.4H3.945A2.982,2.982,0,0,1,1,28.363V4.04A2.982,2.982,0,0,1,3.945,1H43.66a2.982,2.982,0,0,1,2.945,3.04Z" transform="translate(-0.327 -0.08)" fill="#fff"/><path d="M9.845,12.115a3.939,3.939,0,0,1,1.52-.285,4.779,4.779,0,0,1,4.656,3.8l3.23-.665A7.965,7.965,0,0,0,11.365,8.6,11.961,11.961,0,0,0,8.8,8.98Z" transform="translate(-0.716 -0.459)" fill="#ffca05"/><path d="M5.66,22.671,7.846,20.2A4.734,4.734,0,0,1,6.23,16.686,4.422,4.422,0,0,1,7.846,13.17L5.66,10.7a8.064,8.064,0,0,0,0,11.971" transform="translate(-0.427 -0.564)" fill="#00a3df"/><path d="M15.926,18a4.779,4.779,0,0,1-4.656,3.8,3.939,3.939,0,0,1-1.52-.285L8.8,24.651a7.281,7.281,0,0,0,2.565.38,8.06,8.06,0,0,0,7.886-6.366Z" transform="translate(-0.716 -0.928)" fill="#ee4023"/><path d="M22.659,20.409c-.1-.19-.285-.475-.38-.665a4.756,4.756,0,0,1-.1-3.61,4.613,4.613,0,0,1,2.565-2.755,5.141,5.141,0,0,1,4.561.285,4.825,4.825,0,0,1,2,2.47c.1.19.1.285.19.475ZM25.6,15.279a2.493,2.493,0,0,0-1.52,2.565l4.466-1.9a2.459,2.459,0,0,0-2.945-.665m3.515,4.18h0a3.408,3.408,0,0,1-1.33.95,2.272,2.272,0,0,1-2.565-.285l-.1.1-1.14,1.71a3.851,3.851,0,0,0,.855.475,4.815,4.815,0,0,0,3.8-.1,4.193,4.193,0,0,0,2.09-1.71Z" transform="translate(-1.368 -0.677)" fill="#231f20"/><path d="M35.09,10.8v9.406l1.425.57-.855,1.9-1.615-.665a1.76,1.76,0,0,1-.76-.665A2.026,2.026,0,0,1,33,20.206V10.8Z" transform="translate(-1.923 -0.569)" fill="#231f20"/><path d="M39.085,18.005a2.674,2.674,0,0,1,.95-2l-1.52-1.71A4.675,4.675,0,0,0,36.9,18.005a5.333,5.333,0,0,0,1.615,3.705L40.035,20a2.511,2.511,0,0,1-.95-2" transform="translate(-2.118 -0.743)" fill="#231f20"/><path d="M41.915,20.79c-.285,0-.57-.1-.855-.1l-.76,2.09a4.3,4.3,0,0,0,1.52.285,4.81,4.81,0,0,0,4.751-3.9L44.386,18.7a2.381,2.381,0,0,1-2.47,2.09" transform="translate(-2.287 -0.963)" fill="#231f20"/><path d="M41.92,13a3.939,3.939,0,0,0-1.52.285l.665,2.09a2.631,2.631,0,0,1,.855-.1,2.574,2.574,0,0,1,2.565,2.09l2.185-.475A4.889,4.889,0,0,0,41.92,13" transform="translate(-2.292 -0.679)" fill="#231f20"/><path d="M43.611,0H3.9A3.934,3.934,0,0,0,0,3.99V28.408a3.913,3.913,0,0,0,3.9,3.9H43.611a3.934,3.934,0,0,0,3.9-3.99V3.99A3.934,3.934,0,0,0,43.611,0m2.945,28.408a2.96,2.96,0,0,1-2.945,2.945H3.9A2.982,2.982,0,0,1,.95,28.313V3.99A2.982,2.982,0,0,1,3.9.95H43.611a2.982,2.982,0,0,1,2.945,3.04Z" transform="translate(-0.277 -0.03)" fill="#efefef"/></g></g></svg>