<svg xmlns="http://www.w3.org/2000/svg" xmlns:xlink="http://www.w3.org/1999/xlink" width="48" height="32" viewBox="0 0 48 32"><defs><clipPath id="a"><rect width="48" height="32" fill="none"/></clipPath></defs><g transform="translate(-0.284)"><g transform="translate(0.284 0)" clip-path="url(#a)"><path d="M44.549,1H4.027A3.044,3.044,0,0,0,1,3.993V28.4a3.043,3.043,0,0,0,3.027,3H44.549a3.044,3.044,0,0,0,3.027-2.993V4a3.043,3.043,0,0,0-3.027-3" transform="translate(-0.616 -0.08)" fill="#fff"/><path d="M44.519,0H3.988A3.975,3.975,0,0,0,0,3.952v24.4A3.975,3.975,0,0,0,4,32.3H44.529a3.975,3.975,0,0,0,3.988-3.952V3.952A3.975,3.975,0,0,0,44.519,0Zm3.027,28.361a3.044,3.044,0,0,1-3.027,2.993H4a3.044,3.044,0,0,1-3.027-3V3.943A3.044,3.044,0,0,1,4,.95H44.519a3.043,3.043,0,0,1,3.027,3Z" transform="translate(-0.586 -0.03)" fill="#efefef"/><path d="M21.454,16.509a9.227,9.227,0,0,1,3.056-6.843,9.612,9.612,0,0,0-6.5-2.51,9.454,9.454,0,0,0-9.552,9.353,9.454,9.454,0,0,0,9.552,9.353,9.612,9.612,0,0,0,6.5-2.51,9.227,9.227,0,0,1-3.056-6.843" transform="translate(-0.837 -0.387)" fill="red"/><path d="M31.5,7.156A9.62,9.62,0,0,0,25,9.665a9.191,9.191,0,0,1,0,13.686,9.621,9.621,0,0,0,6.5,2.51,9.454,9.454,0,0,0,9.552-9.353A9.454,9.454,0,0,0,31.5,7.156" transform="translate(-1.328 -0.387)" fill="#ff9e00"/><path d="M27.962,16.641A9.227,9.227,0,0,0,24.907,9.8a9.19,9.19,0,0,0,0,13.685,9.227,9.227,0,0,0,3.056-6.843" transform="translate(-1.235 -0.519)" fill="#ff4e00"/></g></g></svg>