<svg xmlns="http://www.w3.org/2000/svg" xmlns:xlink="http://www.w3.org/1999/xlink" width="48" height="32" viewBox="0 0 48 32"><defs><clipPath id="a"><rect width="48" height="32" transform="translate(-0.295)" fill="none"/></clipPath></defs><g transform="translate(0.295)"><g transform="translate(0)" clip-path="url(#a)"><path d="M3.956.5H43.7a3.456,3.456,0,0,1,3.456,3.456V28.145A3.456,3.456,0,0,1,43.7,31.6H3.956A3.456,3.456,0,0,1,.5,28.145V3.956A3.456,3.456,0,0,1,3.956.5" transform="translate(-0.043 -0.068)" fill="#fff"/><rect width="46.651" height="31.1" rx="4" transform="translate(0.457 0.432)" fill="none" stroke="#efefef" stroke-width="1"/><path d="M37,21.866H36.07a.224.224,0,0,1,0-.448H37a1.567,1.567,0,0,0,1.113-.46l2.17-2.129a.943.943,0,0,1,1.333,0l2.16,2.121a1.555,1.555,0,0,0,1.113.46h.755a.225.225,0,0,1,0,.449h-.757a2.015,2.015,0,0,1-1.431-.593l-2.16-2.122a.5.5,0,0,0-.7,0l-2.168,2.13a2.017,2.017,0,0,1-1.43.591" transform="translate(-4.853 -2.525)" fill="#85868a"/><path d="M23.094,23.975a.226.226,0,0,1-.225-.225V16.807a2.66,2.66,0,0,1,2.657-2.657h2.16a2.659,2.659,0,0,1,2.65,2.653v1.8a2.66,2.66,0,0,1-2.657,2.657H24.294a.225.225,0,1,1,0-.449h3.386A2.211,2.211,0,0,0,29.886,18.6V16.8a2.208,2.208,0,0,0-2.2-2.2h-2.16a2.21,2.21,0,0,0-2.206,2.208V23.75a.227.227,0,0,1-.225.225" transform="translate(-3.087 -1.926)" fill="#85868a"/><path d="M33.8,21.3a.224.224,0,0,1-.225-.225v-5.7a.778.778,0,0,0-.778-.778h-.927a.225.225,0,0,1,0-.449H32.8a1.224,1.224,0,0,1,1.222,1.222v5.7a.224.224,0,0,1-.225.225Z" transform="translate(-4.281 -1.925)" fill="#85868a"/><path d="M34.432,12.281h0a.567.567,0,0,1,0,.8l0,0a.569.569,0,1,1,0-.8" transform="translate(-4.529 -1.649)" fill="#43ab98"/><path d="M37,14.149h-.927a.225.225,0,1,0,0,.449H37a1.555,1.555,0,0,1,1.113.46l2.17,2.129a.943.943,0,0,0,1.333,0l2.16-2.122a1.567,1.567,0,0,1,1.113-.46h.755a.225.225,0,0,0,0-.449h-.757a2.015,2.015,0,0,0-1.431.593l-2.16,2.119a.494.494,0,0,1-.7,0l-2.164-2.13A2.011,2.011,0,0,0,37,14.149" transform="translate(-4.853 -1.926)" fill="#85868a"/><path d="M9.525,22.081a1.737,1.737,0,0,0,1.231-.509l1.78-1.78a.338.338,0,0,1,.467,0l1.786,1.786a1.734,1.734,0,0,0,1.233.511h.351l-2.253,2.255a1.8,1.8,0,0,1-2.546,0L9.309,22.081Z" transform="translate(-1.242 -2.681)" fill="#43ab98"/><path d="M16.023,14.732a1.746,1.746,0,0,0-1.233.511L13,17.029a.333.333,0,0,1-.467,0l-1.781-1.777a1.728,1.728,0,0,0-1.231-.511H9.31l2.261-2.261a1.8,1.8,0,0,1,2.546,0l2.253,2.255Z" transform="translate(-1.242 -1.627)" fill="#43ab98"/><path d="M7.063,17.13l1.346-1.347h.738a1.231,1.231,0,0,1,.864.358l1.78,1.78a.856.856,0,0,0,1.209,0l1.786-1.786a1.222,1.222,0,0,1,.864-.358h.873l1.353,1.353a1.8,1.8,0,0,1,0,2.545h0l-1.353,1.351h-.879a1.222,1.222,0,0,1-.864-.356l-1.787-1.787a.874.874,0,0,0-1.209,0L10,20.664a1.231,1.231,0,0,1-.864.358H8.4L7.057,19.676a1.8,1.8,0,0,1,0-2.545h.007Z" transform="translate(-0.863 -2.147)" fill="#43ab98"/></g></g></svg>