<svg xmlns="http://www.w3.org/2000/svg" xmlns:xlink="http://www.w3.org/1999/xlink" width="48" height="32" viewBox="0 0 48 32"><defs><clipPath id="a"><rect width="48" height="32" transform="translate(0 0)" fill="none"/></clipPath></defs><g clip-path="url(#a)"><path d="M43.668,1H3.946A2.982,2.982,0,0,0,1,4.041V28.463a2.961,2.961,0,0,0,2.946,2.946H43.668a2.961,2.961,0,0,0,2.946-2.946V4.041A2.982,2.982,0,0,0,43.668,1" transform="translate(-0.05 -0.395)" fill="#fff"/><path d="M43.618,0H3.9A3.935,3.935,0,0,0,0,3.991V28.414a3.914,3.914,0,0,0,3.9,3.9H43.618a3.935,3.935,0,0,0,3.9-3.991V3.991A3.935,3.935,0,0,0,43.618,0m2.946,28.414a2.961,2.961,0,0,1-2.946,2.946H3.9A2.982,2.982,0,0,1,.95,28.318V3.991A2.982,2.982,0,0,1,3.9.95H43.618a2.982,2.982,0,0,1,2.946,3.041Z" transform="translate(0 -0.346)" fill="#eeeeef"/><path d="M21.241,11.2,18.2,21.273h2.756L24,11.2Z" transform="translate(-0.905 -0.902)" fill="#25469f"/><path d="M16.448,11.2l-2.471,4.276a10.935,10.935,0,0,0-1.14,2.376,20.7,20.7,0,0,0-.1-2.566L12.456,11.3H7.8v.285a1.917,1.917,0,0,1,2.091,1.711v.1l.95,7.982h2.851l5.7-10.073Z" transform="translate(-0.388 -0.902)" fill="#25469f"/><path d="M37.117,11.2,31.7,21.178h2.946l.665-1.52h3.421l.1,1.52h2.756l-.95-9.978Zm-.76,6.652L37.4,15.761c.285-.76,1.045-2.186,1.235-2.756v2.376l.19,2.566Z" transform="translate(-1.576 -0.902)" fill="#25469f"/><path d="M29.367,15.371l-.665-.38c-.855-.475-1.235-.95-.95-1.425a1.157,1.157,0,0,1,1.14-.475,3.535,3.535,0,0,1,2.091.95L32.5,12.33A5.156,5.156,0,0,0,29.082,11c-2.091,0-3.326.855-3.8,2-.76,1.806-.1,2.851,1.52,3.9l.57.38c1.045.57,1.52.95,1.14,1.615a1.3,1.3,0,0,1-1.235.57,4.749,4.749,0,0,1-2.946-.95L23,20.408a7.9,7.9,0,0,0,4.181,1.14,4.05,4.05,0,0,0,4.181-2.471c.38-1.235-.1-2.471-2-3.706" transform="translate(-1.143 -0.892)" fill="#25469f"/></g></svg>